<svg xmlns="http://www.w3.org/2000/svg" xmlns:xlink="http://www.w3.org/1999/xlink" width="500" zoomAndPan="magnify" viewBox="0 0 375 374.999991" height="500" preserveAspectRatio="xMidYMid meet" version="1.0"><defs><clipPath id="3f4743e5ce"><path d="M 111 168 L 302.953125 168 L 302.953125 375 L 111 375 Z M 111 168 " clip-rule="nonzero"/></clipPath></defs><g clip-path="url(#3f4743e5ce)"><path fill="#ffcc00" d="M 279.292969 168.613281 C 71.933594 242.109375 114.660156 373.675781 115.210938 374.742188 C 115.210938 374.746094 115.214844 374.75 115.214844 374.753906 C 115.214844 374.753906 116.78125 294.035156 213.5 253.984375 C 213.5 253.984375 183.9375 273.089844 160.613281 306.257812 C 161.578125 306.261719 162.546875 306.265625 163.527344 306.265625 C 219.328125 306.265625 253.472656 297.101562 273.882812 280.863281 C 291.375 266.703125 303.035156 246.714844 303.035156 221.3125 C 303.035156 198.828125 293.894531 181 279.292969 168.613281 " fill-opacity="1" fill-rule="nonzero"/></g><path fill="#ffcc00" d="M 259.722656 36.414062 C 243 26.515625 223.933594 25.550781 196.425781 20.980469 C 160.832031 15.066406 136.328125 0.246094 136.328125 0.246094 C 132.683594 38.421875 177.144531 53.113281 177.144531 53.113281 C 177.144531 53.113281 161.691406 65.914062 157.085938 70.75 C 72.265625 159.820312 94.808594 302.101562 94.808594 302.101562 C 94.824219 302.105469 94.839844 302.105469 94.855469 302.109375 C 102.148438 220.148438 177.863281 135.707031 227.675781 123.9375 C 193.917969 113.480469 167.054688 129.835938 167.054688 129.835938 C 193.390625 108.511719 225 115.40625 239.671875 120.441406 C 249.566406 123.835938 254.570312 134.855469 250.675781 144.566406 C 249.085938 148.535156 247.230469 151.351562 247.230469 151.351562 C 278.878906 139.691406 293.457031 116.367188 293.457031 91.382812 C 293.457031 65.980469 279.296875 46.824219 259.722656 36.414062 " fill-opacity="1" fill-rule="nonzero"/></svg>